<svg width="3375" height="3040" viewBox="0 0 3375 3040" fill="none" xmlns="http://www.w3.org/2000/svg">
<path d="M2173.76 2776.55C2347 2699.5 2473.5 2559.5 2667 2426C2818.02 2263.15 2996.97 2067.12 3032.34 1850.71C3067.71 1634.3 3038.83 1409.48 2948.7 1199.74C2858.58 989.993 2710.52 803.005 2519.98 658.295C2329.44 513.586 2103.4 416.461 1865.47 377.059C1627.54 337.657 1426.11 402.629 1207 479.5C987.892 556.371 827 658.295 619.835 814.073C480.525 985.824 396.091 1191.87 375.347 1410.71L1708.66 1593.32L2173.76 2776.55Z" fill="#3C3C45"/>
<path d="M1347 651C2079.77 651 2669 1182.71 2669 1833C2669 2483.29 2079.77 3015 1347 3015C614.229 3015 25 2483.29 25 1833C25 1182.71 614.229 651 1347 651Z" fill="white" stroke="#3C3C45" stroke-width="50"/>
<path d="M1735.62 983.613C1635.4 860.7 1488.61 862.059 1338.72 899.673C1114.16 899.673 1032.19 899.673 930.528 983.613C757.207 1046.63 598.658 1155.41 474.929 1296.22C351.2 1437.03 267.849 1603.53 235.416 1774.67L458.641 1778.11C482.853 1650.35 545.075 1526.06 637.44 1420.94C729.804 1315.83 848.163 1234.62 977.547 1187.58C1106.93 1140.54 1215.92 1089.48 1338.72 1116.37C1448.65 1116.37 1675.55 1187.58 1675.55 1116.37L1735.62 983.613Z" fill="#E5C682"/>
<path d="M1567.3 1232.66C1505.49 1156.85 1395.39 1138.81 1302.94 1162C1164.45 1162 1113.9 1162 1051.2 1213.77C944.303 1252.63 806.004 1300.32 729.696 1387.16C653.388 1474 600.262 1498.66 580.26 1604.2L647.17 1656.63C662.103 1577.84 724.941 1497.34 781.906 1432.52C838.871 1367.69 971.399 1324.66 1051.2 1295.65C1130.99 1266.64 1313.05 1197.19 1388.78 1213.77C1456.58 1213.77 1498.25 1297.22 1525.2 1267.47L1567.3 1232.66Z" fill="#39632A"/>
<path d="M1464.57 1227.3C1365.76 1192.8 1424.71 1210.76 1324.78 1210.76C1224.85 1210.76 1252.36 1227.3 1176.01 1227.3C1069.69 1266.87 883.633 1299.65 807.03 1386.13C730.427 1472.61 654.208 1549.47 633.136 1653.71L779.556 1747.36C795.286 1669.55 899.699 1574.98 956.884 1510.42C1014.07 1445.86 1096.64 1415.67 1176.01 1386.13C1255.37 1356.59 1366.19 1370.7 1440.99 1386.13C1508.12 1385.32 1508.82 1304.4 1535.86 1274.76L1464.57 1227.3Z" fill="#A1CA92"/>
<path d="M1753.02 2550.31C1864.89 2499.07 1800.28 2531.86 1885.01 2450.46C1969.73 2369.06 1932.94 2377.45 1997.67 2315.26C2055.57 2195.11 2185.44 1986.75 2181.12 1880.03C2175.62 1744.31 2248.53 1597.15 2139.07 1561.16L1983.96 1546.02C1879.96 1527.29 1963.83 1702.26 1967.94 1803.57C1972.04 1904.89 1878.99 2048.4 1835.76 2138.09C1792.54 2227.78 1603.82 2280.1 1527.84 2327.94C1471.58 2383.31 1652.69 2520.99 1653.91 2568.15L1753.02 2550.31Z" fill="#426635"/>
<path d="M370 1793H744.476L786 2145H396.521L370 1793Z" fill="#F3A9A9"/>
<path d="M1858.05 1074.99C1911.16 1105.57 1980.92 1158.8 2015.53 1222.19C2032.77 1253.77 2041.14 1287.59 2034.71 1322.33C2028.29 1357.06 2006.95 1393.42 1963.41 1429.84L1962.72 1430.42L1962.28 1431.19C1928.78 1489.37 1890.27 1528.11 1847.59 1544.98C1805.18 1561.74 1757.75 1557.25 1705.39 1527.13C1650.74 1493.01 1614.72 1464 1592.24 1438.2C1569.82 1412.47 1561.05 1390.17 1560.41 1369.3C1559.76 1348.3 1567.31 1327.96 1579.09 1306.08C1584.97 1295.15 1591.84 1283.96 1599.15 1272.19C1606.45 1260.45 1614.18 1248.13 1621.68 1235.1C1651.54 1183.23 1685.27 1128.1 1724.55 1093.5C1744.13 1076.25 1764.79 1064.38 1786.76 1060.38C1808.61 1056.41 1832.25 1060.14 1858.05 1074.99Z" fill="white" stroke="#BA7B33" stroke-width="10"/>
<path d="M575.127 2173.27C575.791 2216.99 585.154 2240.17 600.468 2250.3C608.449 2255.57 617.436 2256.86 626.239 2256.21C634.981 2255.57 643.858 2252.99 651.951 2250.21C660.391 2247.3 667.395 2244.41 673.85 2242.45C676.965 2241.5 679.571 2240.91 681.696 2240.71C683.856 2240.51 685.081 2240.77 685.743 2241.08C686.336 2241.37 688.323 2242.62 687.686 2250.6C687.071 2258.28 684.103 2270.19 677.786 2288.05L677.5 2288.85V2289.71C677.5 2312.07 676.013 2327.5 672.786 2338.19C669.632 2348.65 664.946 2354.19 658.558 2357.44C651.785 2360.89 642.465 2362.11 629.237 2362.31C622.699 2362.41 615.409 2362.27 607.206 2362.09C599.031 2361.91 589.994 2361.71 580.088 2361.71H577.415L575.931 2363.94C566.367 2378.25 556.465 2384.72 547.503 2386.2C538.609 2387.67 529.445 2384.42 520.852 2376.7C503.474 2361.1 490 2328.42 490 2289.71C490 2250.12 494.156 2221.16 507.146 2202.06C519.223 2184.31 539.693 2174.13 575.127 2173.27Z" fill="#FF9E59" stroke="#BA7B33" stroke-width="10"/>
<path d="M613.514 2166.11C616.346 2165.02 620.168 2164.71 625.219 2165.29C630.237 2165.87 636.069 2167.27 642.703 2169.25C649.327 2171.22 656.535 2173.69 664.335 2176.34C672.096 2178.97 680.391 2181.76 689.021 2184.3C704.772 2188.94 721.844 2192.8 739.312 2193.44C739.43 2210.12 740.152 2222.95 741.284 2232.75C742.517 2243.41 744.265 2250.78 746.426 2255.7C748.2 2259.74 750.686 2263.04 754.18 2264.35C750.817 2271.63 746.095 2282.4 739.669 2298.05L739.294 2298.96V2299.95C739.294 2301.57 739.288 2303.09 739.279 2304.49C738.136 2301.9 736.856 2299.08 735.435 2296.11C729.688 2284.13 721.424 2269.47 709.642 2257.76C697.779 2245.96 682.18 2237.01 662.024 2237.01H659.574L658.073 2238.95C648.89 2250.8 641.069 2256.57 634.922 2258.41C629.305 2260.08 624.565 2258.65 620.242 2254.12C615.649 2249.32 611.647 2241.06 608.823 2229.61C606.026 2218.28 604.5 2204.29 604.5 2188.53C604.5 2180.89 605.565 2175.7 607.203 2172.24C608.76 2168.96 610.87 2167.13 613.514 2166.11Z" fill="#FF9E59" stroke="#BA7B33" stroke-width="10"/>
<path d="M688.051 2202.48C702.624 2194.82 722.393 2191.02 742.394 2192.02C762.391 2193.02 782.053 2198.77 796.578 2209.58C810.935 2220.25 820.436 2235.94 820.436 2257.62C820.436 2267.07 820.433 2276.47 821.14 2285.15C821.846 2293.82 823.282 2302.11 826.33 2309.31C829.419 2316.62 834.183 2322.84 841.438 2327.16C847.528 2330.79 855.076 2332.9 864.297 2333.46C863.444 2348.25 858.66 2359.81 851.141 2368.96C842.75 2379.17 830.67 2386.72 815.95 2392.23C786.375 2403.29 747.429 2405.62 710.436 2405.62H707.985L706.483 2407.55C702.037 2413.29 698.937 2414.59 697.259 2414.65C695.813 2414.71 693.595 2413.86 690.711 2409.78C687.893 2405.8 685.166 2399.69 682.63 2391.73C680.116 2383.84 677.882 2374.43 675.921 2364.04C668.062 2322.42 664.85 2266.62 664.85 2234.71C664.85 2221.18 673.485 2210.15 688.051 2202.48Z" fill="#FF9E59" stroke="#BA7B33" stroke-width="10"/>
<path d="M579.2 2294.83C593.773 2287.17 613.543 2283.37 633.544 2284.37C653.541 2285.37 673.203 2291.12 687.729 2301.92C702.085 2312.6 711.586 2328.29 711.586 2349.96C711.586 2353.24 710.416 2355.4 708.452 2357.04C706.291 2358.85 702.877 2360.26 698.2 2361.07C688.848 2362.7 676.355 2361.64 664.777 2359.31C658.871 2358.13 653.466 2356.66 649.054 2355.19C649.019 2353.44 649 2351.7 649 2349.96V2344.96H644C641.109 2344.96 638.671 2345.12 636.716 2345.45C635.024 2345.75 632.719 2346.32 631.056 2347.89C630.062 2348.82 629.204 2350.22 629.09 2351.99C628.983 2353.66 629.576 2355.01 630.134 2355.89C631.163 2357.52 632.796 2358.71 634.126 2359.55C635.511 2360.41 637.249 2361.3 639.266 2362.17C639.87 2376.7 641.404 2391.27 642.811 2405.08C644.627 2422.92 646.218 2439.39 645.564 2453.53C644.908 2467.72 642.013 2478.65 635.659 2486.03C629.475 2493.22 619.201 2497.96 601.586 2497.96H599.135L597.634 2499.9C593.187 2505.64 590.088 2506.94 588.409 2507C586.964 2507.05 584.745 2506.2 581.861 2502.13C579.043 2498.15 576.316 2492.04 573.78 2484.08C571.266 2476.19 569.032 2466.78 567.071 2456.39C559.213 2414.77 556 2358.97 556 2327.06C556 2313.53 564.635 2302.49 579.2 2294.83Z" fill="#FF9E59" stroke="#BA7B33" stroke-width="10"/>
<path d="M549.584 2336.19C562.22 2343.22 575.236 2355.85 585.358 2370.9C595.484 2385.96 602.385 2402.95 603.359 2418.47C604.32 2433.78 599.548 2447.49 586.434 2457.15C580.995 2461.16 577.99 2461.24 576.596 2460.88C575.146 2460.49 573.615 2459.16 572.207 2456.27C570.839 2453.47 570.009 2450.02 569.534 2447.1C569.302 2445.67 569.166 2444.44 569.089 2443.58C569.05 2443.15 569.026 2442.81 569.013 2442.59C569.006 2442.48 569 2442.4 568.998 2442.35C568.997 2442.33 568.997 2442.31 568.996 2442.3L568.957 2441.32L568.549 2440.42L567.46 2438.06C564.975 2432.74 562.877 2428.7 561.052 2425.7C559.046 2422.39 557.063 2419.8 554.836 2418.28C553.627 2417.46 552.206 2416.85 550.593 2416.73C548.971 2416.61 547.577 2417.02 546.481 2417.55C545.444 2418.05 544.591 2418.69 543.986 2419.19C543.493 2419.59 542.673 2420.32 542.364 2420.58C541.393 2421.4 540.877 2421.69 540.467 2421.8C540.228 2421.86 539.591 2422 538.168 2421.36C534.852 2419.88 528.956 2414.98 519.046 2401.53L517.72 2399.73L515.494 2399.52C503.324 2398.37 495.614 2395.18 491.164 2391.27C486.923 2387.54 485.22 2382.8 485.738 2377.1C486.277 2371.17 489.261 2364.11 494.817 2356.53C500.337 2349.01 508.192 2341.27 517.988 2334.05C525.771 2328.32 536.798 2329.07 549.584 2336.19Z" fill="#FF9E59" stroke="#BA7B33" stroke-width="10"/>
<path d="M810.793 2195.74C821.424 2204.42 831.965 2218.37 839.761 2234.08C847.563 2249.79 852.354 2266.73 852.023 2281.27C851.695 2295.66 846.432 2307.15 834.616 2313.59C829.802 2316.22 828.543 2315.04 828.346 2314.87C827.417 2314.08 826.35 2311.86 825.855 2307.69C825.397 2303.83 825.555 2299.49 825.858 2296C826.008 2294.28 826.188 2292.81 826.329 2291.79C826.4 2291.27 826.461 2290.87 826.503 2290.61C826.524 2290.47 826.541 2290.37 826.551 2290.31C826.556 2290.28 826.56 2290.25 826.562 2290.24C826.563 2290.24 826.563 2290.23 826.564 2290.23L826.564 2290.23L826.86 2288.53L826.042 2287.01L818.773 2273.49C812.183 2261.26 807.557 2252.79 804.212 2247.14C802.005 2243.42 800.2 2240.65 798.641 2238.81C797.864 2237.89 796.953 2236.96 795.885 2236.26C794.771 2235.53 793.179 2234.87 791.271 2235.1C789.401 2235.33 788.087 2236.31 787.304 2237.07C786.545 2237.81 785.965 2238.65 785.567 2239.27C784.543 2240.85 784.19 2241.63 783.179 2243.04C781.747 2245.03 779.804 2246.95 776.076 2247.72C766.155 2244.63 759.919 2240.53 756.378 2236.26C752.826 2231.97 751.714 2227.19 752.596 2222.07C754.452 2211.31 765.373 2198.38 783.859 2188.29C790.533 2184.65 799.873 2186.82 810.793 2195.74Z" fill="#FF9E59" stroke="#BA7B33" stroke-width="10"/>
<path d="M952.178 2418.22C949.37 2432.41 941.348 2448.67 930.136 2462.93C918.92 2477.2 904.876 2488.98 890.408 2494.68C876.127 2500.3 861.621 2499.97 848.392 2490.46C843.335 2486.83 841.034 2482.71 840.165 2478.61C839.266 2474.37 839.828 2469.78 841.19 2465.31C842.546 2460.87 844.608 2456.84 846.37 2453.88C847.244 2452.41 848.027 2451.23 848.583 2450.44C848.86 2450.04 849.08 2449.74 849.224 2449.54C849.296 2449.44 849.35 2449.37 849.382 2449.33C849.398 2449.31 849.408 2449.3 849.413 2449.29L849.414 2449.29C849.416 2449.29 849.418 2449.29 849.418 2449.29L849.416 2449.29L849.417 2449.29C854.101 2443.27 857.13 2439.49 859.04 2437.17C859.131 2437.15 859.212 2437.12 859.282 2437.1C859.745 2436.94 860.091 2436.75 860.283 2436.64C860.904 2436.26 861.313 2435.82 861.335 2435.79C861.673 2435.44 862.04 2434.96 862.276 2434.65C862.596 2434.22 863.035 2433.63 863.618 2432.83C865.95 2429.64 870.851 2422.82 880.609 2409.24L881.913 2407.43L881.43 2405.25C878.789 2393.31 879.454 2384.99 881.808 2379.56C884.052 2374.38 888.041 2371.3 893.625 2370.04C899.428 2368.73 907.07 2369.4 915.984 2372.36C924.838 2375.3 934.616 2380.39 944.498 2387.5C952.349 2393.14 955.02 2403.87 952.178 2418.22Z" fill="#FF9E59" stroke="#BA7B33" stroke-width="10"/>
<path d="M843.629 2492.57C840.821 2506.76 832.799 2523.02 821.588 2537.28C810.371 2551.55 796.327 2563.33 781.859 2569.03C767.578 2574.65 753.072 2574.32 739.843 2564.82C734.786 2561.18 732.485 2557.06 731.617 2552.96C730.717 2548.72 731.279 2544.13 732.641 2539.66C733.997 2535.22 736.059 2531.19 737.821 2528.23C738.695 2526.76 739.478 2525.58 740.034 2524.79C740.311 2524.39 740.531 2524.09 740.675 2523.89C740.747 2523.8 740.801 2523.72 740.833 2523.68C740.849 2523.66 740.859 2523.65 740.864 2523.64L740.865 2523.64C740.867 2523.64 740.869 2523.64 740.869 2523.64L740.867 2523.64L740.868 2523.64C745.552 2517.62 748.581 2513.84 750.491 2511.52C750.582 2511.5 750.663 2511.47 750.733 2511.45C751.196 2511.29 751.542 2511.1 751.734 2510.99C752.355 2510.61 752.764 2510.17 752.786 2510.14C753.124 2509.79 753.491 2509.31 753.727 2509C754.047 2508.57 754.486 2507.98 755.069 2507.18C757.401 2503.99 762.302 2497.17 772.06 2483.59L773.364 2481.78L772.881 2479.6C770.24 2467.66 770.905 2459.34 773.259 2453.91C775.503 2448.73 779.492 2445.65 785.076 2444.39C790.879 2443.08 798.521 2443.75 807.435 2446.71C816.29 2449.65 826.067 2454.74 835.949 2461.85C843.8 2467.49 846.471 2478.22 843.629 2492.57Z" fill="#FF9E59" stroke="#BA7B33" stroke-width="10"/>
<path d="M704.692 2650.07C680.383 2642.78 652.977 2626.42 629.248 2605.25C605.509 2584.07 585.889 2558.46 576.684 2532.98C567.536 2507.66 568.763 2482.9 585.846 2462.15C592.51 2454.06 600.103 2450.65 607.802 2449.86C615.677 2449.06 623.977 2450.98 631.77 2454.15C639.529 2457.3 646.472 2461.57 651.511 2465.09C654.019 2466.84 656.03 2468.38 657.402 2469.48C658.088 2470.03 658.612 2470.47 658.96 2470.76C659.133 2470.91 659.263 2471.02 659.345 2471.09C659.386 2471.13 659.416 2471.16 659.433 2471.17C659.441 2471.18 659.446 2471.18 659.449 2471.19L659.454 2471.19C670.179 2480.68 676.656 2486.56 680.42 2490.1C680.447 2490.66 680.559 2491.09 680.634 2491.33C680.773 2491.78 680.947 2492.12 681.05 2492.31C681.384 2492.91 681.788 2493.32 681.821 2493.36C682.19 2493.76 682.777 2494.27 683.348 2494.76C684.016 2495.34 684.969 2496.14 686.276 2497.24C691.499 2501.6 702.675 2510.8 724.975 2529.16L726.606 2530.5L728.705 2530.27C749.101 2528 763.845 2530.5 773.85 2535.85C783.672 2541.1 789.344 2549.31 791.41 2559.65C795.654 2580.89 784.64 2611.7 759.584 2642.13C748.876 2655.13 729.304 2657.46 704.692 2650.07Z" fill="#FF9E59" stroke="#BA7B33" stroke-width="10"/>
<path d="M1524.9 1989.53C1398.32 1811.75 1574.18 2041.03 1398.32 1811.75C1188.76 1787.12 1221.58 1621.21 1380.1 1499.62C1538.62 1378.03 1947.69 1878.65 1716.82 2055.73C1622.99 2127.7 1524.9 1989.53 1524.9 1989.53Z" fill="#914F21"/>
<path d="M1156.5 1819.51C1237 1819.51 1212 1759.51 1337.5 1859.51C1509.11 1885.18 1435.86 2013.92 1302.42 2109.75C1168.98 2205.58 845.719 1783.53 1040.05 1643.96C1119.04 1587.24 1156.5 1819.51 1156.5 1819.51Z" fill="#914F21"/>
<path d="M848.522 2287.87C863.339 2295.05 878.123 2308.71 889.188 2325.41C900.251 2342.09 907.284 2361.34 907.206 2379.44C907.129 2397.33 900.136 2414.29 882.692 2427.15L820.913 2472.68L819.577 2473.66C805.849 2483.59 794.275 2489.02 784.128 2491.01C773.799 2493.03 764.666 2491.54 755.81 2487.12C746.813 2482.63 737.965 2475.04 728.514 2464.63C719.073 2454.24 709.281 2441.32 698.291 2426.42L696.837 2424.44L694.387 2424.38C687.132 2424.21 684.244 2422.49 683.199 2421.17C682.299 2420.04 681.667 2417.75 683.235 2413.01C684.768 2408.38 688.065 2402.56 692.967 2395.8C697.828 2389.09 704.079 2381.71 711.276 2373.97C740.119 2342.94 783.129 2307.25 808.813 2288.32C819.703 2280.29 833.711 2280.69 848.522 2287.87Z" fill="#FF9E59" stroke="#BA7B33" stroke-width="10"/>
<path d="M640.2 2342.83C654.773 2335.17 674.543 2331.37 694.544 2332.37C714.541 2333.37 734.203 2339.12 748.729 2349.92C763.085 2360.6 772.586 2376.29 772.586 2397.96V2474.71L772.578 2476.37C772.427 2493.31 769.932 2505.85 765.51 2515.2C761.009 2524.71 754.39 2531.18 745.576 2535.68C736.622 2540.26 725.264 2542.88 711.281 2544.31C697.314 2545.75 681.107 2545.96 662.586 2545.96H660.135L658.634 2547.9C654.187 2553.64 651.088 2554.94 649.409 2555C647.964 2555.05 645.745 2554.2 642.861 2550.13C640.043 2546.15 637.316 2540.04 634.78 2532.08C632.266 2524.19 630.032 2514.78 628.071 2504.39C620.213 2462.77 617 2406.97 617 2375.06C617 2361.53 625.635 2350.49 640.2 2342.83Z" fill="#FF9E59" stroke="#BA7B33" stroke-width="10"/>
<path d="M1097.15 2145L1625 2622.96L1374.61 2714H1097.15L956 2622.96L1097.15 2145Z" fill="#C9A92A"/>
</svg>
