<svg width="3375" height="3040" viewBox="0 0 3375 3040" fill="none" xmlns="http://www.w3.org/2000/svg">
<path d="M2173.76 2776.21C2347 2699.16 2473.5 2559.16 2667 2425.66C2818.02 2262.81 2996.97 2066.79 3032.34 1850.37C3067.71 1633.96 3038.83 1409.15 2948.7 1199.4C2858.58 989.655 2710.52 802.668 2519.98 657.958C2329.44 513.248 2103.4 416.123 1865.47 376.721C1627.54 337.319 1426.11 402.292 1207 479.163C987.892 556.034 827 657.958 619.835 813.736C480.525 985.487 396.091 1191.54 375.347 1410.37L1708.66 1592.98L2173.76 2776.21Z" fill="#3C3C45"/>
<path d="M1347 650.663C2079.77 650.663 2669 1182.37 2669 1832.66C2669 2482.95 2079.77 3014.66 1347 3014.66C614.229 3014.66 25 2482.95 25 1832.66C25 1182.37 614.229 650.663 1347 650.663Z" fill="white" stroke="#3C3C45" stroke-width="50"/>
<path d="M1735.62 983.275C1635.4 860.363 1488.61 861.722 1338.72 899.336C1114.16 899.336 1032.19 899.336 930.528 983.275C757.207 1046.29 598.658 1155.08 474.929 1295.88C351.2 1436.69 267.849 1603.19 235.416 1774.33L458.641 1777.77C482.853 1650.02 545.075 1525.72 637.44 1420.61C729.804 1315.49 848.163 1234.28 977.547 1187.24C1106.93 1140.2 1215.92 1089.15 1338.72 1116.04C1448.65 1116.04 1675.55 1187.24 1675.55 1116.04L1735.62 983.275Z" fill="#E5C682"/>
<path d="M1567.3 1232.32C1505.49 1156.52 1395.39 1138.47 1302.94 1161.67C1164.45 1161.67 1113.9 1161.67 1051.2 1213.43C944.303 1252.3 806.004 1299.98 729.696 1386.83C653.388 1473.67 600.262 1498.32 580.26 1603.87L647.17 1656.3C662.103 1577.5 724.941 1497.01 781.906 1432.18C838.871 1367.35 971.399 1324.32 1051.2 1295.31C1130.99 1266.3 1313.05 1196.85 1388.78 1213.43C1456.58 1213.43 1498.25 1296.88 1525.2 1267.13L1567.3 1232.32Z" fill="#39632A"/>
<path d="M1464.57 1226.96C1365.76 1192.46 1424.71 1210.43 1324.78 1210.43C1224.85 1210.43 1252.36 1226.96 1176.01 1226.96C1069.69 1266.53 883.633 1299.31 807.03 1385.79C730.427 1472.27 654.208 1549.13 633.136 1653.37L779.556 1747.02C795.286 1669.21 899.699 1574.64 956.884 1510.08C1014.07 1445.52 1096.64 1415.33 1176.01 1385.79C1255.37 1356.25 1366.19 1370.36 1440.99 1385.79C1508.12 1384.98 1508.82 1304.07 1535.86 1274.43L1464.57 1226.96Z" fill="#A1CA92"/>
<path d="M1753.02 2549.98C1864.89 2498.74 1800.28 2531.52 1885.01 2450.12C1969.73 2368.72 1932.94 2377.12 1997.67 2314.92C2055.57 2194.77 2185.44 1986.42 2181.12 1879.7C2175.62 1743.98 2248.53 1596.81 2139.07 1560.82L1983.96 1545.69C1879.96 1526.95 1963.83 1701.92 1967.94 1803.24C1972.04 1904.55 1878.99 2048.06 1835.76 2137.75C1792.54 2227.45 1603.82 2279.76 1527.84 2327.6C1471.58 2382.98 1652.69 2520.65 1653.91 2567.81L1753.02 2549.98Z" fill="#426635"/>
<path d="M370 1792.66H744.476L786 2144.66H396.521L370 1792.66Z" fill="#F3A9A9"/>
<path d="M1858.05 1074.66C1911.16 1105.23 1980.92 1158.46 2015.53 1221.85C2032.77 1253.43 2041.14 1287.25 2034.71 1321.99C2028.29 1356.72 2006.95 1393.08 1963.41 1429.51L1962.72 1430.08L1962.28 1430.85C1928.78 1489.04 1890.27 1527.77 1847.59 1544.64C1805.18 1561.4 1757.75 1556.91 1705.39 1526.79C1650.74 1492.67 1614.72 1463.66 1592.24 1437.86C1569.82 1412.13 1561.05 1389.83 1560.41 1368.97C1559.76 1347.96 1567.31 1327.63 1579.09 1305.74C1584.97 1294.81 1591.84 1283.63 1599.15 1271.85C1606.45 1260.11 1614.18 1247.79 1621.68 1234.76C1651.54 1182.9 1685.27 1127.76 1724.55 1093.16C1744.13 1075.92 1764.79 1064.04 1786.76 1060.04C1808.61 1056.07 1832.25 1059.8 1858.05 1074.66Z" fill="white" stroke="#BA7B33" stroke-width="10"/>
<path d="M575.127 2172.94C575.791 2216.65 585.154 2239.83 600.468 2249.96C608.449 2255.24 617.436 2256.53 626.239 2255.88C634.981 2255.23 643.858 2252.65 651.951 2249.87C660.391 2246.96 667.395 2244.07 673.85 2242.11C676.965 2241.17 679.571 2240.57 681.696 2240.37C683.856 2240.17 685.081 2240.43 685.743 2240.75C686.336 2241.03 688.323 2242.28 687.686 2250.26C687.071 2257.94 684.103 2269.85 677.786 2287.71L677.5 2288.52V2289.38C677.5 2311.73 676.013 2327.16 672.786 2337.86C669.632 2348.31 664.946 2353.85 658.558 2357.1C651.785 2360.55 642.465 2361.78 629.237 2361.98C622.699 2362.08 615.409 2361.93 607.206 2361.75C599.031 2361.58 589.994 2361.38 580.088 2361.38H577.415L575.931 2363.6C566.367 2377.91 556.465 2384.38 547.503 2385.86C538.609 2387.33 529.445 2384.08 520.852 2376.37C503.474 2360.76 490 2328.08 490 2289.38C490 2249.79 494.156 2220.82 507.146 2201.73C519.223 2183.98 539.693 2173.79 575.127 2172.94Z" fill="#FF9E59" stroke="#BA7B33" stroke-width="10"/>
<path d="M613.514 2165.78C616.346 2164.68 620.168 2164.37 625.219 2164.95C630.237 2165.53 636.069 2166.94 642.703 2168.91C649.327 2170.89 656.535 2173.36 664.335 2176C672.096 2178.64 680.391 2181.42 689.021 2183.96C704.772 2188.6 721.844 2192.47 739.312 2193.1C739.43 2209.79 740.152 2222.61 741.284 2232.41C742.517 2243.07 744.265 2250.45 746.426 2255.37C748.2 2259.4 750.686 2262.7 754.18 2264.01C750.817 2271.29 746.095 2282.06 739.669 2297.71L739.294 2298.63V2299.61C739.294 2301.24 739.288 2302.75 739.279 2304.16C738.136 2301.57 736.856 2298.74 735.435 2295.78C729.688 2283.8 721.424 2269.13 709.642 2257.42C697.779 2245.63 682.18 2236.68 662.024 2236.68H659.574L658.073 2238.61C648.89 2250.46 641.069 2256.23 634.922 2258.07C629.305 2259.75 624.565 2258.31 620.242 2253.79C615.649 2248.98 611.647 2240.72 608.823 2229.28C606.026 2217.94 604.5 2203.95 604.5 2188.2C604.5 2180.55 605.565 2175.36 607.203 2171.9C608.76 2168.62 610.87 2166.8 613.514 2165.78Z" fill="#FF9E59" stroke="#BA7B33" stroke-width="10"/>
<path d="M688.051 2202.15C702.624 2194.48 722.393 2190.69 742.394 2191.68C762.391 2192.68 782.053 2198.44 796.578 2209.24C810.935 2219.92 820.436 2235.61 820.436 2257.28C820.436 2266.73 820.433 2276.13 821.14 2284.81C821.846 2293.48 823.282 2301.77 826.33 2308.98C829.419 2316.28 834.183 2322.5 841.438 2326.82C847.528 2330.45 855.076 2332.57 864.297 2333.13C863.444 2347.92 858.66 2359.47 851.141 2368.62C842.75 2378.83 830.67 2386.39 815.95 2391.89C786.375 2402.95 747.429 2405.28 710.436 2405.28H707.985L706.483 2407.22C702.037 2412.95 698.937 2414.26 697.259 2414.32C695.813 2414.37 693.595 2413.52 690.711 2409.45C687.893 2405.46 685.166 2399.36 682.63 2391.4C680.116 2383.51 677.882 2374.09 675.921 2363.71C668.062 2322.08 664.85 2266.28 664.85 2234.38C664.85 2220.85 673.485 2209.81 688.051 2202.15Z" fill="#FF9E59" stroke="#BA7B33" stroke-width="10"/>
<path d="M579.2 2294.49C593.773 2286.83 613.543 2283.03 633.544 2284.03C653.541 2285.03 673.203 2290.78 687.729 2301.59C702.085 2312.27 711.586 2327.96 711.586 2349.63C711.586 2352.9 710.416 2355.06 708.452 2356.7C706.291 2358.51 702.877 2359.92 698.2 2360.73C688.848 2362.36 676.355 2361.3 664.777 2358.98C658.871 2357.79 653.466 2356.33 649.054 2354.85C649.019 2353.11 649 2351.36 649 2349.63V2344.63H644C641.109 2344.63 638.671 2344.78 636.716 2345.12C635.024 2345.41 632.719 2345.98 631.056 2347.55C630.062 2348.49 629.204 2349.88 629.09 2351.66C628.983 2353.32 629.576 2354.67 630.134 2355.56C631.163 2357.18 632.796 2358.38 634.126 2359.21C635.511 2360.08 637.249 2360.96 639.266 2361.83C639.87 2376.36 641.404 2390.93 642.811 2404.75C644.627 2422.59 646.218 2439.05 645.564 2453.19C644.908 2467.38 642.013 2478.31 635.659 2485.7C629.475 2492.88 619.201 2497.63 601.586 2497.63H599.135L597.634 2499.56C593.187 2505.3 590.088 2506.6 588.409 2506.66C586.964 2506.72 584.745 2505.87 581.861 2501.79C579.043 2497.81 576.316 2491.71 573.78 2483.75C571.266 2475.85 569.032 2466.44 567.071 2456.06C559.213 2414.43 556 2358.63 556 2326.72C556 2313.19 564.635 2302.16 579.2 2294.49Z" fill="#FF9E59" stroke="#BA7B33" stroke-width="10"/>
<path d="M549.584 2335.85C562.22 2342.88 575.236 2355.51 585.358 2370.57C595.484 2385.62 602.385 2402.61 603.359 2418.13C604.32 2433.45 599.548 2447.15 586.434 2456.82C580.995 2460.83 577.99 2460.91 576.596 2460.54C575.146 2460.16 573.615 2458.82 572.207 2455.93C570.839 2453.13 570.009 2449.68 569.534 2446.76C569.302 2445.34 569.166 2444.11 569.089 2443.24C569.05 2442.81 569.026 2442.48 569.013 2442.25C569.006 2442.14 569 2442.06 568.998 2442.01C568.997 2441.99 568.997 2441.97 568.996 2441.97L568.957 2440.98L568.549 2440.09L567.46 2437.73C564.975 2432.4 562.877 2428.37 561.052 2425.36C559.046 2422.06 557.063 2419.46 554.836 2417.95C553.627 2417.12 552.206 2416.51 550.593 2416.4C548.971 2416.28 547.577 2416.68 546.481 2417.21C545.444 2417.71 544.591 2418.36 543.986 2418.85C543.493 2419.25 542.673 2419.98 542.364 2420.24C541.393 2421.06 540.877 2421.35 540.467 2421.46C540.228 2421.53 539.591 2421.66 538.168 2421.03C534.852 2419.54 528.956 2414.64 519.046 2401.2L517.72 2399.4L515.494 2399.19C503.324 2398.03 495.614 2394.84 491.164 2390.93C486.923 2387.2 485.22 2382.46 485.738 2376.76C486.277 2370.84 489.261 2363.77 494.817 2356.2C500.337 2348.67 508.192 2340.94 517.988 2333.72C525.771 2327.98 536.798 2328.73 549.584 2335.85Z" fill="#FF9E59" stroke="#BA7B33" stroke-width="10"/>
<path d="M810.793 2195.4C821.424 2204.08 831.965 2218.04 839.761 2233.74C847.563 2249.45 852.354 2266.4 852.023 2280.93C851.695 2295.32 846.432 2306.81 834.616 2313.26C829.802 2315.88 828.543 2314.7 828.346 2314.53C827.417 2313.75 826.35 2311.52 825.855 2307.35C825.397 2303.5 825.555 2299.16 825.858 2295.66C826.008 2293.94 826.188 2292.48 826.329 2291.45C826.4 2290.94 826.461 2290.54 826.503 2290.27C826.524 2290.13 826.541 2290.03 826.551 2289.97C826.556 2289.94 826.56 2289.92 826.562 2289.9C826.563 2289.9 826.563 2289.89 826.564 2289.89L826.564 2289.89L826.86 2288.19L826.042 2286.67L818.773 2273.15C812.183 2260.92 807.557 2252.45 804.212 2246.81C802.005 2243.08 800.2 2240.32 798.641 2238.47C797.864 2237.55 796.953 2236.62 795.885 2235.92C794.771 2235.2 793.179 2234.54 791.271 2234.76C789.401 2234.99 788.087 2235.97 787.304 2236.73C786.545 2237.47 785.965 2238.31 785.567 2238.93C784.543 2240.51 784.19 2241.3 783.179 2242.7C781.747 2244.69 779.804 2246.61 776.076 2247.38C766.155 2244.3 759.919 2240.2 756.378 2235.92C752.826 2231.63 751.714 2226.85 752.596 2221.73C754.452 2210.97 765.373 2198.04 783.859 2187.96C790.533 2184.32 799.873 2186.48 810.793 2195.4Z" fill="#FF9E59" stroke="#BA7B33" stroke-width="10"/>
<path d="M952.178 2417.88C949.37 2432.07 941.348 2448.34 930.136 2462.59C918.92 2476.86 904.876 2488.65 890.408 2494.34C876.127 2499.97 861.621 2499.64 848.392 2490.13C843.335 2486.49 841.034 2482.37 840.165 2478.27C839.266 2474.03 839.828 2469.44 841.19 2464.97C842.546 2460.53 844.608 2456.5 846.37 2453.54C847.244 2452.07 848.027 2450.9 848.583 2450.1C848.86 2449.7 849.08 2449.4 849.224 2449.2C849.296 2449.11 849.35 2449.04 849.382 2449C849.398 2448.97 849.408 2448.96 849.413 2448.95L849.414 2448.95C849.416 2448.95 849.418 2448.95 849.418 2448.95L849.416 2448.95L849.417 2448.95C854.101 2442.94 857.13 2439.15 859.04 2436.84C859.131 2436.81 859.212 2436.79 859.282 2436.76C859.745 2436.61 860.091 2436.41 860.283 2436.3C860.904 2435.92 861.313 2435.48 861.335 2435.46C861.673 2435.11 862.04 2434.62 862.276 2434.31C862.596 2433.89 863.035 2433.29 863.618 2432.49C865.95 2429.3 870.851 2422.48 880.609 2408.91L881.913 2407.09L881.43 2404.91C878.789 2392.97 879.454 2384.66 881.808 2379.22C884.052 2374.04 888.041 2370.96 893.625 2369.7C899.428 2368.39 907.07 2369.06 915.984 2372.02C924.838 2374.96 934.616 2380.06 944.498 2387.16C952.349 2392.8 955.02 2403.53 952.178 2417.88Z" fill="#FF9E59" stroke="#BA7B33" stroke-width="10"/>
<path d="M843.629 2492.23C840.821 2506.42 832.799 2522.69 821.588 2536.94C810.371 2551.21 796.327 2563 781.859 2568.69C767.578 2574.32 753.072 2573.99 739.843 2564.48C734.786 2560.84 732.485 2556.72 731.617 2552.62C730.717 2548.38 731.279 2543.79 732.641 2539.32C733.997 2534.88 736.059 2530.85 737.821 2527.89C738.695 2526.42 739.478 2525.25 740.034 2524.45C740.311 2524.05 740.531 2523.75 740.675 2523.56C740.747 2523.46 740.801 2523.39 740.833 2523.35C740.849 2523.32 740.859 2523.31 740.864 2523.3L740.865 2523.3C740.867 2523.3 740.869 2523.3 740.869 2523.3L740.867 2523.3L740.868 2523.3C745.552 2517.29 748.581 2513.5 750.491 2511.19C750.582 2511.16 750.663 2511.14 750.733 2511.11C751.196 2510.96 751.542 2510.76 751.734 2510.65C752.355 2510.27 752.764 2509.83 752.786 2509.81C753.124 2509.46 753.491 2508.97 753.727 2508.66C754.047 2508.24 754.486 2507.64 755.069 2506.84C757.401 2503.65 762.302 2496.83 772.06 2483.26L773.364 2481.44L772.881 2479.26C770.24 2467.32 770.905 2459.01 773.259 2453.57C775.503 2448.39 779.492 2445.31 785.076 2444.05C790.879 2442.74 798.521 2443.41 807.435 2446.37C816.29 2449.31 826.067 2454.41 835.949 2461.51C843.8 2467.15 846.471 2477.88 843.629 2492.23Z" fill="#FF9E59" stroke="#BA7B33" stroke-width="10"/>
<path d="M704.692 2649.74C680.383 2642.44 652.977 2626.08 629.248 2604.91C605.509 2583.73 585.889 2558.12 576.684 2532.64C567.536 2507.32 568.763 2482.57 585.846 2461.82C592.51 2453.72 600.103 2450.31 607.802 2449.53C615.677 2448.72 623.977 2450.64 631.77 2453.81C639.529 2456.96 646.472 2461.23 651.511 2464.75C654.019 2466.5 656.03 2468.05 657.402 2469.15C658.088 2469.7 658.612 2470.13 658.96 2470.43C659.133 2470.57 659.263 2470.69 659.345 2470.76C659.386 2470.79 659.416 2470.82 659.433 2470.83C659.441 2470.84 659.446 2470.85 659.449 2470.85L659.454 2470.85C670.179 2480.34 676.656 2486.22 680.42 2489.77C680.447 2490.32 680.559 2490.75 680.634 2490.99C680.773 2491.45 680.947 2491.79 681.05 2491.97C681.384 2492.57 681.788 2492.99 681.821 2493.02C682.19 2493.42 682.777 2493.93 683.348 2494.43C684.016 2495 684.969 2495.81 686.276 2496.9C691.499 2501.26 702.675 2510.46 724.975 2528.82L726.606 2530.17L728.705 2529.93C749.101 2527.67 763.845 2530.16 773.85 2535.51C783.672 2540.76 789.344 2548.97 791.41 2559.31C795.654 2580.56 784.64 2611.36 759.584 2641.79C748.876 2654.8 729.304 2657.12 704.692 2649.74Z" fill="#FF9E59" stroke="#BA7B33" stroke-width="10"/>
<path d="M1524.9 1989.19C1398.32 1811.42 1574.18 2040.69 1398.32 1811.42C1188.76 1786.78 1221.58 1620.87 1380.1 1499.28C1538.62 1377.7 1947.69 1878.32 1716.82 2055.39C1622.99 2127.36 1524.9 1989.19 1524.9 1989.19Z" fill="#914F21"/>
<path d="M1156.5 1819.18C1237 1819.18 1212 1759.18 1337.5 1859.18C1509.11 1884.85 1435.86 2013.58 1302.42 2109.41C1168.98 2205.24 845.719 1783.19 1040.05 1643.62C1119.04 1586.9 1156.5 1819.18 1156.5 1819.18Z" fill="#914F21"/>
<path d="M848.522 2287.53C863.339 2294.71 878.123 2308.38 889.188 2325.07C900.251 2341.76 907.284 2361 907.206 2379.1C907.129 2396.99 900.136 2413.95 882.692 2426.81L820.913 2472.35L819.577 2473.32C805.849 2483.25 794.275 2488.68 784.128 2490.67C773.799 2492.69 764.666 2491.2 755.81 2486.78C746.813 2482.29 737.965 2474.7 728.514 2464.29C719.073 2453.9 709.281 2440.99 698.291 2426.08L696.837 2424.1L694.387 2424.05C687.132 2423.87 684.244 2422.15 683.199 2420.83C682.299 2419.7 681.667 2417.41 683.235 2412.67C684.768 2408.04 688.065 2402.22 692.967 2395.46C697.828 2388.75 704.079 2381.37 711.276 2373.63C740.119 2342.61 783.129 2306.91 808.813 2287.98C819.703 2279.95 833.711 2280.35 848.522 2287.53Z" fill="#FF9E59" stroke="#BA7B33" stroke-width="10"/>
<path d="M640.2 2342.49C654.773 2334.83 674.543 2331.03 694.544 2332.03C714.541 2333.03 734.203 2338.78 748.729 2349.59C763.085 2360.27 772.586 2375.96 772.586 2397.63V2474.38L772.578 2476.03C772.427 2492.97 769.932 2505.51 765.51 2514.86C761.009 2524.37 754.39 2530.84 745.576 2535.34C736.622 2539.92 725.264 2542.54 711.281 2543.98C697.314 2545.41 681.107 2545.63 662.586 2545.63H660.135L658.634 2547.56C654.187 2553.3 651.088 2554.6 649.409 2554.66C647.964 2554.72 645.745 2553.87 642.861 2549.79C640.043 2545.81 637.316 2539.71 634.78 2531.75C632.266 2523.85 630.032 2514.44 628.071 2504.06C620.213 2462.43 617 2406.63 617 2374.72C617 2361.19 625.635 2350.16 640.2 2342.49Z" fill="#FF9E59" stroke="#BA7B33" stroke-width="10"/>
<path d="M1097.15 2144.66L1625 2622.62L1374.61 2713.66H1097.15L956 2622.62L1097.15 2144.66Z" fill="#C9A92A"/>
</svg>
